<svg width="170" height="28" viewBox="0 0 170 28" fill="none" xmlns="http://www.w3.org/2000/svg">
  <path d="M168.035 15.768C167.998 15.254 167.762 14.763 167.326 14.296C166.89 13.831 166.244 13.598 165.385 13.598C164.759 13.598 164.218 13.794 163.757 14.186C163.297 14.578 162.981 15.106 162.81 15.769H168.035V15.768ZM165.606 21.656C164.245 21.656 163.138 21.203 162.286 20.296C161.432 19.387 161.006 18.241 161.006 16.854C161.006 15.542 161.42 14.414 162.248 13.469C163.076 12.524 164.134 12.052 165.422 12.052C166.758 12.052 167.83 12.487 168.632 13.358C169.436 14.23 169.838 15.394 169.838 16.854L169.819 17.166H162.7C162.749 18.076 163.053 18.793 163.61 19.32C164.169 19.848 164.822 20.111 165.57 20.111C166.785 20.111 167.607 19.596 168.036 18.566L169.545 19.191C169.251 19.891 168.765 20.477 168.091 20.949C167.417 21.42 166.588 21.657 165.607 21.657L165.606 21.656ZM156.584 21.656C155.578 21.656 154.748 21.411 154.092 20.921C153.452 20.451 152.952 19.815 152.647 19.081L154.156 18.455C154.634 19.584 155.45 20.148 156.603 20.148C157.131 20.148 157.563 20.032 157.901 19.798C158.237 19.566 158.406 19.258 158.406 18.878C158.406 18.29 157.996 17.891 157.174 17.682L155.352 17.24C154.775 17.094 154.23 16.814 153.714 16.404C153.2 15.993 152.942 15.438 152.942 14.738C152.942 13.941 153.294 13.294 154 12.798C154.704 12.301 155.542 12.052 156.511 12.052C157.308 12.052 158.02 12.234 158.646 12.594C159.259 12.942 159.734 13.492 159.989 14.15L158.517 14.757C158.186 13.959 157.499 13.561 156.456 13.561C155.952 13.561 155.53 13.666 155.186 13.874C154.842 14.082 154.671 14.364 154.671 14.72C154.671 15.235 155.07 15.585 155.868 15.769L157.652 16.192C158.499 16.388 159.124 16.726 159.529 17.204C159.934 17.682 160.136 18.222 160.136 18.824C160.136 19.633 159.805 20.307 159.142 20.847C158.48 21.387 157.627 21.657 156.585 21.657M145.048 12.347V13.597H145.122C145.366 13.168 145.754 12.803 146.281 12.502C146.795 12.205 147.379 12.05 147.974 12.052C149.09 12.052 149.942 12.396 150.531 13.082C151.12 13.769 151.414 14.69 151.414 15.842V21.362H149.722V16.1C149.722 14.432 148.979 13.598 147.496 13.598C146.796 13.598 146.226 13.878 145.784 14.435C145.342 14.994 145.122 15.64 145.122 16.376V21.363H143.43V12.346L145.048 12.347ZM140.208 15.768C140.172 15.254 139.935 14.763 139.5 14.296C139.065 13.831 138.418 13.598 137.56 13.598C136.934 13.598 136.391 13.794 135.93 14.186C135.47 14.578 135.155 15.106 134.983 15.769H140.209L140.208 15.768ZM137.78 21.656C136.418 21.656 135.311 21.203 134.46 20.296C133.606 19.387 133.18 18.241 133.18 16.854C133.18 15.542 133.594 14.414 134.422 13.469C135.25 12.524 136.308 12.052 137.596 12.052C138.933 12.052 140.003 12.487 140.807 13.358C141.61 14.23 142.012 15.394 142.012 16.854L141.994 17.166H134.873C134.923 18.076 135.226 18.793 135.784 19.32C136.342 19.848 136.994 20.111 137.744 20.111C138.958 20.111 139.779 19.596 140.209 18.566L141.718 19.191C141.424 19.891 140.938 20.477 140.264 20.949C139.59 21.42 138.761 21.657 137.78 21.657V21.656ZM127.59 21.656C126.634 21.656 125.698 21.343 124.785 20.718C123.871 20.093 123.273 19.216 122.99 18.088L124.537 17.462C124.714 18.175 125.109 18.815 125.668 19.292C126.238 19.789 126.878 20.038 127.59 20.038C128.326 20.038 128.954 19.844 129.476 19.458C129.998 19.072 130.258 18.548 130.258 17.885C130.258 17.149 129.998 16.582 129.476 16.182C128.954 15.784 128.13 15.412 127.002 15.07C125.836 14.702 124.952 14.226 124.352 13.643C123.752 13.061 123.45 12.316 123.45 11.407C123.45 10.463 123.825 9.64104 124.574 8.94204C125.321 8.24204 126.296 7.89404 127.498 7.89404C128.614 7.89404 129.522 8.17304 130.222 8.73104C130.921 9.28904 131.374 9.89904 131.583 10.561L130.038 11.206C129.928 10.789 129.654 10.402 129.219 10.046C128.783 9.69004 128.222 9.51304 127.536 9.51304C126.885 9.51304 126.33 9.69304 125.87 10.055C125.41 10.418 125.18 10.869 125.18 11.407C125.18 11.899 125.392 12.312 125.815 12.65C126.238 12.987 126.861 13.291 127.682 13.56C128.332 13.77 128.874 13.972 129.312 14.168C129.778 14.383 130.222 14.645 130.636 14.95C131.083 15.274 131.42 15.68 131.648 16.165C131.874 16.649 131.988 17.21 131.988 17.848C131.988 18.486 131.857 19.056 131.593 19.559C131.349 20.039 130.988 20.451 130.544 20.755C129.672 21.344 128.643 21.658 127.59 21.657M117.1 20.11C117.898 20.11 118.575 19.817 119.134 19.227C119.691 18.638 119.971 17.848 119.971 16.854C119.971 15.861 119.691 15.069 119.134 14.481C118.575 13.892 117.898 13.597 117.102 13.597C116.316 13.597 115.641 13.894 115.078 14.49C114.512 15.085 114.23 15.874 114.23 16.854C114.23 17.835 114.512 18.624 115.078 19.218C115.641 19.814 116.316 20.11 117.102 20.11M116.824 21.657C115.658 21.657 114.653 21.196 113.808 20.276C112.96 19.356 112.538 18.216 112.538 16.854C112.538 15.493 112.96 14.352 113.808 13.431C114.653 12.511 115.658 12.052 116.824 12.052C117.512 12.052 118.128 12.198 118.674 12.494C119.219 12.788 119.627 13.156 119.898 13.598H119.971L119.898 12.346V8.18804H121.59V21.362H119.97V20.11H119.897C119.627 20.553 119.218 20.92 118.673 21.215C118.126 21.509 117.511 21.657 116.824 21.657ZM103.982 16.21H108.362L106.208 10.266H106.134L103.982 16.21ZM100.246 21.362L105.214 8.18804H107.129L112.097 21.362H110.22L108.95 17.794H103.41L102.122 21.362H100.246Z" fill="#5F6368"/>
  <path d="M88.152 16.7101L92.443 14.9271C92.206 14.3271 91.498 13.9101 90.662 13.9101C89.589 13.9101 88.098 14.8551 88.152 16.7101ZM93.189 18.4371L94.825 19.5271C94.298 20.3101 93.025 21.6551 90.825 21.6551C88.098 21.6551 86.129 19.5451 86.129 16.8551C86.129 13.9991 88.116 12.0551 90.589 12.0551C93.08 12.0551 94.299 14.0371 94.698 15.1101L94.916 15.6551L88.498 18.3101C88.988 19.2741 89.752 19.7641 90.825 19.7641C91.897 19.7641 92.643 19.2371 93.189 18.4371ZM82.787 21.3641H84.896V7.25412H82.787V21.3641ZM79.347 16.8731C79.347 15.1831 78.218 13.9461 76.782 13.9461C75.329 13.9461 74.11 15.1821 74.11 16.8731C74.11 18.5461 75.329 19.7641 76.782 19.7641C78.218 19.7641 79.347 18.5461 79.347 16.8731ZM81.2 12.3461V20.9641C81.2 24.5101 79.11 25.9641 76.637 25.9641C74.309 25.9641 72.909 24.4011 72.382 23.1281L74.218 22.3641C74.546 23.1461 75.346 24.0731 76.637 24.0731C78.218 24.0731 79.201 23.0911 79.201 21.2551V20.5641H79.128C78.655 21.1461 77.746 21.6551 76.6 21.6551C74.2 21.6551 72 19.5641 72 16.8731C72 14.1641 74.2 12.0541 76.6 12.0541C77.746 12.0541 78.655 12.5641 79.128 13.1271H79.2V12.3461H81.2ZM58.184 16.8561C58.184 15.1271 56.952 13.9461 55.524 13.9461C54.096 13.9461 52.864 15.1281 52.864 16.8561C52.864 18.5641 54.096 19.7641 55.524 19.7641C56.952 19.7641 58.184 18.5651 58.184 16.8561ZM60.254 16.8551C60.254 19.6181 58.13 21.6551 55.524 21.6551C52.918 21.6551 50.794 19.6181 50.794 16.8551C50.794 14.0731 52.918 12.0551 55.524 12.0551C58.13 12.0551 60.254 14.0721 60.254 16.8551ZM68.79 16.8551C68.79 15.1271 67.558 13.9451 66.13 13.9451C64.702 13.9451 63.47 15.1281 63.47 16.8551C63.47 18.5641 64.702 19.7641 66.13 19.7641C67.558 19.7641 68.79 18.5641 68.79 16.8551ZM70.86 16.8551C70.86 19.6181 68.736 21.6551 66.13 21.6551C63.523 21.6551 61.4 19.6181 61.4 16.8551C61.4 14.0731 63.523 12.0551 66.13 12.0551C68.736 12.0551 70.86 14.0721 70.86 16.8551ZM42.688 21.6551C38.58 21.6551 35.125 18.3101 35.125 14.2011C35.125 10.0901 38.58 6.74512 42.689 6.74512C44.962 6.74512 46.58 7.63712 47.799 8.80112L46.362 10.2371C45.489 9.41812 44.307 8.78212 42.689 8.78212C39.689 8.78212 37.342 11.2011 37.342 14.2011C37.342 17.2011 39.689 19.6181 42.689 19.6181C44.634 19.6181 45.743 18.8371 46.453 18.1281C47.034 17.5461 47.417 16.7101 47.562 15.5641H42.688V13.5281H49.542C49.616 13.8911 49.652 14.3281 49.652 14.8001C49.652 16.3281 49.234 18.2201 47.889 19.5651C46.579 20.9281 44.906 21.6551 42.688 21.6551Z" fill="#5F6368"/>
  <path d="M15.742 7.45012C16.868 5.52212 16.199 3.05812 14.248 1.94512C12.296 0.833122 9.80096 1.49212 8.67396 3.42012C8.62396 3.50612 8.57796 3.59412 8.53396 3.68412L4.72596 10.1981C4.64196 10.3281 4.56396 10.4611 4.49296 10.5981L0.537964 17.4221L7.60496 21.3831L11.539 14.6171C11.625 14.4881 11.703 14.3551 11.773 14.2171L15.581 7.70212C15.636 7.62012 15.692 7.53712 15.742 7.45012Z" fill="#FBBC04"/>
  <path d="M7.63798 21.3622C6.51798 23.3222 3.99098 24.0422 2.05098 22.9122C0.110978 21.7812 -0.579022 19.3282 0.541978 17.3702C1.66298 15.4112 4.16698 14.6872 6.10798 15.8182C8.04798 16.9482 8.75798 19.4042 7.63798 21.3622Z" fill="#34A853"/>
  <path d="M22.886 8.74015C20.958 7.62815 18.493 8.28715 17.376 10.2122L13.341 17.1832C12.806 18.1082 12.661 19.2072 12.938 20.2392C13.215 21.2702 13.892 22.1492 14.818 22.6812C16.747 23.7932 19.212 23.1342 20.33 21.2082L24.363 14.2382C24.898 13.3132 25.043 12.2142 24.765 11.1822C24.488 10.1512 23.812 9.27215 22.886 8.74015Z" fill="#4285F4"/>
</svg>
