<svg width="47" height="102" viewBox="0 0 47 102" fill="none" xmlns="http://www.w3.org/2000/svg">
  <g clip-path="url(#clip0_202_20)">
    <path d="M46.9 23.4C46.9 36.3235 31.3 72 23.5 72C15.7 72 0.0999756 36.3235 0.0999756 23.4C0.0999756 10.4765 10.5765 0 23.5 0C36.4234 0 46.9 10.4765 46.9 23.4Z" fill="#60A5FA"/>
    <path d="M25.5836 13.8023L26.8848 17.807C26.8919 17.8288 26.8989 17.8505 26.9059 17.8719C27.0048 18.1772 27.0911 18.4432 27.2168 18.679C27.6501 19.4912 28.4323 20.0595 29.3386 20.2206C29.6017 20.2673 29.8814 20.2671 30.2023 20.2669C30.2249 20.2669 30.2476 20.2669 30.2706 20.2669H34.4814C35.1832 20.2669 35.6792 20.2671 36.043 20.2814C36.2229 20.2885 36.3513 20.2985 36.4433 20.3103C36.5203 20.3203 36.5513 20.3291 36.5532 20.3295C37.1576 20.554 37.3947 21.2837 37.0377 21.8205C37.0364 21.8219 37.0165 21.8472 36.96 21.9006C36.8925 21.9643 36.7945 22.0478 36.6531 22.1593C36.3673 22.3847 35.9661 22.6764 35.3983 23.0889L31.9917 25.564C31.9731 25.5775 31.9547 25.5908 31.9365 25.6041C31.6767 25.7925 31.4503 25.9568 31.265 26.1492C30.6265 26.8123 30.3277 27.7318 30.4545 28.6436C30.4913 28.9082 30.578 29.1741 30.6774 29.4793C30.6843 29.5007 30.6914 29.5224 30.6985 29.5442L31.9997 33.5489C32.2166 34.2164 32.3697 34.6882 32.4684 35.0385C32.5173 35.2119 32.5475 35.337 32.5646 35.4282C32.579 35.5046 32.5801 35.5367 32.5803 35.5386C32.5536 36.1828 31.9329 36.6338 31.312 36.4601C31.3102 36.4593 31.28 36.4483 31.2119 36.4111C31.1304 36.3666 31.0207 36.2992 30.871 36.1991C30.5683 35.997 30.1669 35.7055 29.5991 35.293L26.1925 32.818C26.1739 32.8045 26.1555 32.7911 26.1373 32.7778C25.8778 32.589 25.6516 32.4245 25.4113 32.3077C24.5834 31.9053 23.6165 31.9053 22.7886 32.3077C22.5483 32.4245 22.3222 32.589 22.0626 32.7778C22.0444 32.7911 22.026 32.8045 22.0074 32.818L18.6008 35.293C18.0331 35.7055 17.6316 35.997 17.329 36.1991C17.1792 36.2992 17.0695 36.3666 16.988 36.4111C16.92 36.4482 16.8898 36.4593 16.8879 36.4601C16.267 36.6338 15.6463 36.1828 15.6196 35.5386C15.6198 35.5366 15.621 35.5045 15.6353 35.4282C15.6525 35.337 15.6827 35.2119 15.7315 35.0385C15.8303 34.6882 15.9834 34.2164 16.2002 33.5489L17.5015 29.5442C17.5086 29.5224 17.5156 29.5007 17.5226 29.4793C17.622 29.1741 17.7086 28.9082 17.7454 28.6436C17.8722 27.7318 17.5735 26.8123 16.9349 26.1492C16.7496 25.9568 16.5232 25.7925 16.2634 25.6041C16.2452 25.5908 16.2268 25.5775 16.2082 25.564L12.8016 23.0889C12.2338 22.6764 11.8326 22.3847 11.5468 22.1593C11.4054 22.0478 11.3074 21.9643 11.2399 21.9006C11.1835 21.8473 11.1636 21.822 11.1623 21.8205C10.8053 21.2837 11.0424 20.554 11.6467 20.3295C11.6486 20.3291 11.6796 20.3203 11.7566 20.3103C11.8486 20.2985 11.977 20.2885 12.157 20.2814C12.5207 20.2671 13.0167 20.2669 13.7185 20.2669H17.9293C17.9523 20.2669 17.9751 20.2669 17.9976 20.2669C18.3186 20.2671 18.5982 20.2673 18.8613 20.2206C19.7676 20.0595 20.5498 19.4912 20.9831 18.679C21.1089 18.4432 21.1951 18.1772 21.2941 17.8719C21.301 17.8504 21.308 17.8288 21.3151 17.807L22.6163 13.8023C22.8332 13.1348 22.9867 12.6631 23.1127 12.3216C23.1751 12.1527 23.2242 12.0336 23.2639 11.9498C23.2972 11.8796 23.3151 11.8529 23.3161 11.8512C23.7163 11.3458 24.4836 11.3458 24.8838 11.8512C24.8848 11.8529 24.9028 11.8796 24.936 11.9498C24.9757 12.0336 25.0249 12.1527 25.0872 12.3216C25.2133 12.6631 25.3667 13.1348 25.5836 13.8023Z" fill="white" stroke="#BAE6FD" stroke-width="2"/>
    <circle cx="24" cy="89" r="13" fill="#60A5FA"/>
  </g>
  <defs>
    <clipPath id="clip0_202_20">
      <rect width="47" height="102" fill="white"/>
    </clipPath>
  </defs>
</svg>
